<svg xmlns="http://www.w3.org/2000/svg" xmlns:xlink="http://www.w3.org/1999/xlink" zoomAndPan="magnify" viewBox="0 0 375 374.999991" preserveAspectRatio="xMidYMid meet" version="1.0" style="height: 30px;"><defs><g></g><clipPath id="26247436c3"><path d="M 194 1 L 374.25 1 L 374.25 374 L 194 374 Z M 194 1 " clip-rule="nonzero"></path></clipPath><clipPath id="b7ca7c171f"><path d="M 106.507812 106.417969 L 268.667969 106.417969 L 268.667969 268.582031 L 106.507812 268.582031 Z M 106.507812 106.417969 " clip-rule="nonzero"></path></clipPath><clipPath id="559434be12"><path d="M 187.585938 106.417969 C 142.808594 106.417969 106.507812 142.71875 106.507812 187.5 C 106.507812 232.28125 142.808594 268.582031 187.585938 268.582031 C 232.367188 268.582031 268.667969 232.28125 268.667969 187.5 C 268.667969 142.71875 232.367188 106.417969 187.585938 106.417969 Z M 187.585938 106.417969 " clip-rule="nonzero"></path></clipPath></defs><g clip-path="url(#26247436c3)"><path fill="#00a046" d="M 372.679688 166.0625 C 372.53125 164.941406 372.382812 163.898438 372.15625 162.925781 C 371.632812 160.761719 370.738281 158.96875 368.570312 157.324219 C 366.105469 155.457031 363.039062 154.484375 360.050781 153.738281 C 357.957031 153.214844 355.867188 152.691406 354.074219 151.496094 C 351.980469 150.003906 350.636719 147.761719 349.140625 145.671875 C 346.300781 141.789062 341.667969 140.890625 338.753906 137.082031 C 335.988281 133.421875 334.941406 128.792969 333.148438 124.609375 C 331.953125 121.695312 330.683594 118.632812 330.53125 115.421875 C 330.382812 110.492188 332.925781 105.488281 331.578125 100.78125 C 331.207031 99.363281 330.457031 98.09375 330.234375 96.671875 C 329.785156 94.058594 331.878906 92.789062 333.148438 90.847656 C 334.417969 88.832031 335.613281 86.886719 336.136719 84.5 C 337.632812 76.953125 333.894531 71.875 328.8125 66.945312 C 322.164062 60.445312 316.257812 52.976562 309.457031 46.628906 C 305.125 42.59375 299.820312 38.636719 293.765625 38.113281 C 287.039062 37.515625 282.707031 43.789062 275.980469 43.042969 C 273.886719 42.820312 271.945312 42.074219 269.925781 41.847656 C 266.265625 41.476562 262.675781 42.820312 259.089844 43.117188 C 255.429688 43.417969 251.46875 42.222656 248.03125 40.953125 C 239.734375 37.816406 232.710938 31.765625 227.40625 24.742188 C 224.714844 21.234375 222.472656 17.425781 220.679688 13.464844 C 218.886719 9.507812 217.316406 5.546875 213.355469 3.230469 C 208.199219 0.246094 200.652344 1.140625 194.972656 1.886719 L 194.972656 81.808594 C 196.988281 82.035156 199.304688 82.035156 200.949219 82.257812 C 201.25 82.332031 201.546875 82.332031 201.773438 82.40625 C 205.359375 83.003906 208.945312 83.527344 212.535156 84.199219 C 219.707031 85.46875 227.253906 86.964844 233.53125 90.921875 C 236.148438 92.566406 238.464844 94.730469 240.183594 97.34375 C 242.277344 100.558594 242.050781 105.335938 244.59375 108.027344 C 247.207031 110.789062 251.394531 110.34375 254.832031 110.042969 C 256.921875 109.894531 259.015625 109.371094 260.808594 110.34375 C 263.199219 111.761719 265.667969 115.273438 267.460938 117.363281 C 274.335938 125.355469 280.089844 134.320312 284.425781 143.878906 C 286.441406 148.4375 288.160156 153.140625 289.503906 157.921875 C 290.851562 162.777344 293.09375 169.199219 292.644531 174.28125 C 292.421875 176.96875 291.523438 176.371094 289.582031 178.164062 C 288.085938 179.507812 286.964844 181.226562 286.21875 183.09375 C 284.945312 186.453125 285.171875 190.261719 286.664062 193.476562 C 288.460938 197.285156 292.941406 198.480469 292.941406 202.664062 C 292.941406 207.742188 290.625 212.523438 289.207031 217.300781 C 287.113281 224.472656 283.453125 231.496094 280.3125 238.292969 C 277.25 244.9375 273.8125 251.8125 268.730469 257.1875 C 266.5625 259.429688 264.097656 261.371094 261.257812 262.714844 C 257.296875 264.507812 254.007812 263.6875 250.046875 264.210938 C 243.546875 265.105469 241.902344 272.277344 239.882812 277.355469 C 236.597656 285.347656 230.84375 285.421875 223.371094 287.960938 C 217.691406 289.902344 211.9375 291.472656 206.03125 292.59375 C 204.386719 292.890625 202.742188 293.191406 201.023438 293.414062 C 200.054688 293.5625 199.082031 293.714844 198.109375 293.789062 C 197.363281 293.863281 196.019531 293.863281 194.972656 294.011719 L 194.972656 373.113281 C 195.195312 373.039062 195.421875 373.039062 195.644531 372.960938 C 202.742188 371.617188 212.234375 374.828125 217.765625 368.855469 C 220.605469 365.867188 220.976562 361.460938 222.769531 357.949219 C 224.789062 353.765625 227.777344 349.808594 230.992188 346.445312 C 235.027344 342.039062 239.882812 338.453125 245.191406 335.617188 C 249.152344 333.597656 253.335938 331.582031 257.746094 330.984375 C 262.304688 330.386719 266.5625 332.480469 271.195312 332.40625 C 273.589844 332.40625 275.980469 331.957031 278.296875 332.253906 C 281.660156 332.628906 284.574219 334.496094 287.636719 335.914062 C 292.34375 338.082031 297.578125 338.007812 302.058594 335.316406 C 306.46875 332.777344 309.535156 328.445312 313.121094 324.933594 C 318.277344 319.929688 323.433594 314.851562 328.214844 309.546875 C 331.726562 305.664062 335.914062 301.40625 336.808594 296.027344 C 337.78125 290.351562 333.371094 286.242188 331.878906 281.164062 C 330.683594 277.132812 331.578125 272.949219 331.429688 268.839844 C 331.355469 263.984375 330.308594 259.503906 331.28125 254.648438 C 332.402344 249.570312 334.792969 244.789062 338.003906 240.679688 C 342.117188 235.378906 347.421875 231.046875 352.878906 227.160156 C 357.882812 223.578125 363.863281 221.632812 368.71875 217.898438 C 372.382812 215.0625 372.753906 210.429688 373.203125 206.097656 C 373.652344 201.914062 373.949219 197.660156 374.027344 193.402344 C 374.25 184.289062 373.800781 175.101562 372.679688 166.0625 Z M 366.03125 175.773438 C 365.878906 182.945312 365.878906 190.039062 365.878906 197.210938 C 365.878906 199.898438 365.730469 202.511719 365.878906 205.203125 C 365.953125 207.667969 366.402344 210.058594 365.207031 212.371094 C 362.59375 217.453125 356.015625 217.898438 351.234375 216.257812 C 346.449219 214.613281 341.742188 211.402344 336.4375 212.449219 C 329.488281 213.792969 329.488281 221.335938 329.933594 226.9375 C 330.234375 230.375 330.832031 233.808594 331.054688 237.246094 C 331.355469 243.445312 327.917969 252.257812 323.210938 256.367188 C 319.695312 259.429688 314.765625 260.625 311.851562 264.359375 C 308.636719 268.316406 307.066406 273.769531 311.027344 277.878906 C 314.988281 281.910156 321.566406 282.136719 326.199219 285.199219 C 333.523438 290.054688 330.457031 298.046875 325.898438 303.871094 C 319.472656 312.089844 309.90625 317.167969 303.179688 325.160156 C 300.265625 328.59375 297.875 331.65625 292.867188 331.285156 C 288.382812 330.910156 284.273438 327.773438 282.183594 323.890625 C 280.164062 320.15625 281.507812 315.898438 278.445312 312.683594 C 275.679688 309.773438 271.644531 309.027344 267.910156 309.996094 C 264.320312 310.894531 261.109375 313.207031 259.164062 316.421875 C 258.195312 318.0625 258.195312 319.929688 257.445312 321.574219 C 256.398438 324.113281 254.082031 325.605469 251.617188 327.25 C 247.28125 330.089844 242.203125 332.554688 236.894531 332.703125 C 231.515625 332.925781 227.703125 329.117188 222.472656 329.117188 C 211.414062 329.191406 209.84375 339.722656 213.953125 347.792969 C 215.894531 351.601562 217.691406 355.035156 216.417969 359.441406 C 215.820312 361.3125 214.699219 364.820312 213.207031 366.089844 C 211.1875 367.882812 207.824219 366.835938 205.136719 366.6875 C 203.789062 366.613281 202.445312 366.761719 201.101562 366.761719 L 201.101562 299.167969 C 202.21875 298.792969 203.417969 298.644531 204.613281 298.492188 C 210.738281 297.746094 216.71875 296.328125 222.546875 294.386719 C 228.300781 292.445312 233.683594 289.457031 239.363281 287.4375 C 242.574219 286.320312 246.011719 285.570312 249.449219 285.570312 C 250.644531 285.570312 251.917969 285.648438 253.1875 285.871094 C 254.605469 286.167969 256.175781 286.542969 257.597656 286.09375 C 261.40625 284.972656 262.828125 279.820312 263.722656 276.535156 C 265.742188 269.738281 268.582031 264.65625 273.214844 259.28125 C 282.332031 248.671875 289.207031 236.050781 293.617188 222.828125 C 295.707031 216.554688 296.457031 209.90625 298.996094 203.859375 C 301.015625 199.003906 304.898438 196.613281 307.816406 192.578125 C 311.101562 187.949219 308.039062 183.316406 304.75 179.65625 C 303.257812 178.015625 301.164062 176.519531 299.96875 174.652344 C 298.398438 172.261719 298.472656 168.753906 297.875 165.914062 C 296.605469 159.566406 294.738281 153.367188 292.421875 147.316406 C 289.503906 139.695312 285.769531 132.453125 281.136719 125.652344 C 278.371094 121.621094 275.308594 117.738281 272.019531 114.078125 C 269.105469 110.863281 264.320312 107.578125 263.722656 102.949219 C 262.976562 97.269531 264.917969 93.6875 259.015625 90.027344 C 256.324219 88.308594 253.113281 87.484375 249.972656 88.382812 C 246.910156 89.277344 244.070312 89.726562 240.855469 88.832031 C 238.242188 88.082031 235.925781 86.738281 233.53125 85.542969 C 223.816406 80.390625 213.503906 76.429688 202.371094 76.355469 C 201.996094 76.355469 201.472656 76.355469 201.023438 76.28125 L 201.023438 8.757812 C 202.96875 8.609375 204.835938 8.683594 206.777344 8.535156 C 208.796875 8.386719 210.816406 8.238281 212.683594 9.058594 C 217.539062 11.074219 217.914062 17.5 216.492188 21.832031 C 215.375 25.417969 213.28125 28.554688 212.308594 32.214844 C 210.441406 38.9375 215.523438 48.273438 223.519531 46.40625 C 227.105469 45.582031 229.945312 42.820312 233.53125 42.074219 C 238.316406 41.101562 242.648438 44.835938 246.984375 46.179688 C 250.273438 47.226562 253.785156 48.121094 256.398438 50.511719 C 260.0625 54.023438 259.613281 59.402344 264.097656 62.613281 C 268.207031 65.453125 273.886719 65.375 277.625 61.867188 C 281.136719 58.503906 281.660156 53.351562 284.050781 49.316406 C 290.253906 38.710938 300.789062 45.507812 306.84375 52.15625 C 312.894531 58.804688 319.773438 64.628906 325.824219 71.277344 C 331.578125 77.550781 333.148438 87.636719 324.179688 91.96875 C 317.304688 95.253906 306.46875 96.300781 308.488281 107.128906 C 310.054688 115.421875 321.492188 114.675781 325.527344 120.574219 C 328.8125 125.429688 331.128906 132.003906 331.804688 137.828125 C 332.101562 140.816406 332.027344 144.101562 331.128906 147.015625 C 330.382812 149.554688 328.8125 151.648438 329.113281 154.484375 C 329.5625 158.59375 333.148438 162.03125 336.960938 163.300781 C 342.191406 165.09375 344.730469 162.628906 348.765625 159.9375 C 352.429688 157.472656 357.359375 157.175781 361.394531 158.816406 C 363.039062 159.488281 365.804688 161.132812 366.628906 162.851562 C 367.597656 165.539062 366.105469 172.710938 366.03125 175.773438 Z M 366.03125 175.773438 " fill-opacity="1" fill-rule="nonzero"></path></g><path fill="#00a046" d="M 200.949219 263.3125 C 201.023438 263.3125 201.023438 263.3125 201.023438 263.3125 C 222.023438 260.027344 242.277344 244.265625 253.039062 226.414062 C 259.238281 216.105469 262.601562 204.304688 264.023438 192.355469 C 265.441406 180.628906 262.453125 169.050781 257.671875 158.371094 C 249.152344 139.324219 233.53125 123.339844 214.027344 115.71875 C 210.738281 114.449219 205.582031 112.285156 200.949219 111.910156 C 198.707031 111.6875 196.617188 111.910156 194.972656 112.808594 L 194.972656 141.9375 C 196.988281 142.234375 199.007812 142.683594 200.949219 143.28125 C 208.648438 145.597656 215.597656 150.226562 221.203125 156.054688 C 238.839844 174.652344 236.523438 207.367188 217.015625 223.800781 C 213.578125 226.640625 209.769531 228.953125 205.582031 230.597656 C 204.089844 231.195312 202.59375 231.644531 201.023438 232.015625 C 200.800781 232.089844 200.652344 232.167969 200.425781 232.167969 C 198.859375 232.539062 196.542969 232.613281 195.046875 233.285156 L 195.046875 262.492188 C 196.464844 263.386719 198.484375 263.761719 200.949219 263.3125 Z M 200.949219 263.3125 " fill-opacity="1" fill-rule="nonzero"></path><path fill="#00a046" d="M 166.5 0.992188 C 158.503906 2.410156 154.167969 7.566406 152.152344 15.332031 C 151.179688 19.292969 150.730469 23.324219 149.761719 27.207031 C 149.011719 30.269531 149.011719 31.242188 146.320312 32.511719 C 143.257812 34.007812 139.671875 34.902344 136.53125 36.097656 C 131.300781 38.113281 126.21875 40.207031 121.0625 42.371094 C 118.523438 43.492188 115.980469 44.613281 113.441406 45.734375 C 110.824219 46.929688 106.714844 49.988281 104.023438 50.066406 C 97.523438 50.289062 91.246094 41.25 85.640625 38.785156 C 75.476562 34.230469 68.304688 43.640625 61.652344 50.140625 C 57.617188 54.023438 53.730469 58.058594 49.84375 62.089844 C 46.183594 65.824219 40.054688 70.308594 37.8125 74.863281 C 33.925781 82.78125 41.175781 91.144531 45.511719 97.046875 C 46.558594 98.390625 48.125 100.035156 48.722656 101.679688 C 49.546875 103.917969 48.574219 105.785156 47.601562 108.175781 C 45.511719 113.40625 42.671875 118.257812 40.429688 123.339844 C 37.214844 130.433594 36.46875 138.652344 33.105469 145.597656 C 29.816406 152.246094 22.34375 151.347656 16.066406 152.542969 C 6.800781 154.335938 2.464844 158.445312 1.34375 167.855469 C 0 179.804688 0.597656 191.90625 0.449219 204.007812 C 0.375 210.355469 2.539062 217.75 8.816406 220.515625 C 14.050781 222.828125 20.101562 222.382812 25.484375 223.949219 C 33.03125 226.191406 33.03125 231.269531 35.046875 237.917969 C 38.039062 248.226562 44.089844 257.261719 47.828125 267.273438 C 48.722656 269.738281 49.621094 271.230469 48.5 273.398438 C 47.601562 274.964844 45.734375 276.382812 44.613281 277.804688 C 41.773438 281.390625 39.234375 285.347656 37.886719 289.679688 C 34.527344 300.957031 43.417969 306.484375 50.519531 313.582031 C 57.917969 320.976562 64.792969 330.089844 73.535156 335.914062 C 81.308594 341.070312 90.347656 333.375 96.328125 328.746094 C 97.820312 327.625 99.765625 325.53125 101.558594 324.933594 C 103.949219 324.113281 106.042969 325.683594 108.359375 326.800781 C 114.039062 329.417969 119.644531 331.957031 125.324219 334.421875 C 130.703125 336.738281 136.085938 338.976562 141.539062 341.070312 C 143.480469 341.816406 147.21875 342.5625 148.640625 344.054688 C 149.761719 345.25 150.132812 347.941406 150.507812 349.507812 C 152 355.859375 151.402344 363.851562 155.960938 369.003906 C 158.875 372.289062 162.089844 372.738281 166.125 372.589844 C 169.113281 372.515625 172.105469 372.363281 175.09375 372.363281 C 176.066406 372.363281 176.960938 372.289062 177.933594 372.289062 L 177.933594 294.460938 C 143.632812 292.144531 112.46875 271.378906 94.757812 242.25 C 85.417969 226.9375 78.09375 206.996094 78.691406 188.84375 C 79.363281 170.097656 84.070312 151.125 93.5625 134.917969 C 102.378906 119.828125 114.859375 106.832031 129.582031 97.421875 C 137.054688 92.640625 145.125 88.757812 153.496094 85.917969 C 157.605469 84.574219 161.792969 83.453125 166.050781 82.632812 C 169.9375 81.882812 174.121094 81.957031 178.007812 81.285156 L 178.007812 0.992188 C 177.859375 0.992188 177.785156 0.917969 177.707031 0.917969 C 174.121094 0.171875 170.085938 0.394531 166.5 0.992188 Z M 166.5 0.992188 " fill-opacity="1" fill-rule="nonzero"></path><path fill="#00a046" d="M 173 111.539062 C 169.636719 111.6875 166.050781 113.105469 162.914062 114.300781 C 150.058594 118.933594 138.402344 126.847656 129.359375 137.007812 C 111.273438 157.324219 104.699219 186.304688 113.8125 212.148438 C 123.453125 239.5625 149.011719 261.074219 178.082031 264.136719 L 178.082031 233.136719 C 177.707031 233.0625 177.261719 233.0625 176.738281 233.0625 C 155.515625 229.476562 141.6875 209.308594 140.867188 188.621094 C 140.492188 178.613281 143.109375 168.304688 149.085938 160.164062 C 152.523438 155.53125 157.082031 151.648438 161.792969 148.4375 C 164.929688 146.34375 168.367188 144.851562 171.953125 143.730469 C 173.597656 143.207031 175.316406 142.683594 176.960938 142.234375 C 177.335938 142.160156 177.707031 142.011719 178.082031 141.9375 L 178.082031 111.386719 C 175.914062 111.460938 173.75 111.539062 173 111.539062 Z M 173 111.539062 " fill-opacity="1" fill-rule="nonzero"></path><g clip-path="url(#b7ca7c171f)"><g clip-path="url(#559434be12)"><path fill="#00a046" d="M 106.507812 106.417969 L 268.667969 106.417969 L 268.667969 268.582031 L 106.507812 268.582031 Z M 106.507812 106.417969 " fill-opacity="1" fill-rule="nonzero"></path></g></g><g fill="#ffffff" fill-opacity="1"><g transform="translate(157.828528, 240.95486)"><g><path d="M 56.78125 -67.15625 C 56.78125 -66.351562 56.550781 -65.722656 56.09375 -65.265625 C 55.644531 -64.816406 55.023438 -64.59375 54.234375 -64.59375 L 43.6875 -64.59375 C 43.007812 -64.59375 42.671875 -64.253906 42.671875 -63.578125 L 42.671875 -34 C 42.671875 -29.46875 44.597656 -27.203125 48.453125 -27.203125 L 51.6875 -27.203125 C 52.476562 -27.203125 53.097656 -26.972656 53.546875 -26.515625 C 54.003906 -26.066406 54.234375 -25.445312 54.234375 -24.65625 L 54.234375 -2.546875 C 54.234375 -0.960938 53.382812 -0.0546875 51.6875 0.171875 L 41.3125 0.34375 C 31.445312 0.34375 24.132812 -1.128906 19.375 -4.078125 C 14.613281 -7.023438 12.175781 -12.632812 12.0625 -20.90625 L 12.0625 -63.578125 C 12.0625 -64.253906 11.722656 -64.59375 11.046875 -64.59375 L 4.25 -64.59375 C 3.457031 -64.59375 2.832031 -64.816406 2.375 -65.265625 C 1.925781 -65.722656 1.703125 -66.351562 1.703125 -67.15625 L 1.703125 -85.84375 C 1.703125 -86.644531 1.925781 -87.269531 2.375 -87.71875 C 2.832031 -88.175781 3.457031 -88.40625 4.25 -88.40625 L 11.046875 -88.40625 C 11.722656 -88.40625 12.0625 -88.742188 12.0625 -89.421875 L 12.0625 -108.625 C 12.0625 -109.414062 12.289062 -110.039062 12.75 -110.5 C 13.207031 -110.957031 13.832031 -111.1875 14.625 -111.1875 L 40.125 -111.1875 C 40.914062 -111.1875 41.535156 -110.957031 41.984375 -110.5 C 42.441406 -110.039062 42.671875 -109.414062 42.671875 -108.625 L 42.671875 -89.421875 C 42.671875 -88.742188 43.007812 -88.40625 43.6875 -88.40625 L 54.234375 -88.40625 C 55.023438 -88.40625 55.644531 -88.175781 56.09375 -87.71875 C 56.550781 -87.269531 56.78125 -86.644531 56.78125 -85.84375 Z M 56.78125 -67.15625 "></path></g></g></g></svg>