<svg xmlns="http://www.w3.org/2000/svg" xmlns:xlink="http://www.w3.org/1999/xlink" width="500" zoomAndPan="magnify" viewBox="0 0 375 374.999991" height="500" preserveAspectRatio="xMidYMid meet" version="1.0"><defs><g/><clipPath id="bdcf9de1e0"><path d="M 2 1 L 312 1 L 312 375 L 2 375 Z M 2 1 " clip-rule="nonzero"/></clipPath><clipPath id="f211004c8c"><path d="M 57.21875 -41.210938 L 415.582031 55.753906 L 307.257812 456.105469 L -51.105469 359.140625 Z M 57.21875 -41.210938 " clip-rule="nonzero"/></clipPath><clipPath id="b3c894a2dc"><path d="M 57.21875 -41.210938 L 415.582031 55.753906 L 307.257812 456.105469 L -51.105469 359.140625 Z M 57.21875 -41.210938 " clip-rule="nonzero"/></clipPath><clipPath id="e2babc1e7e"><path d="M 78 38 L 374 38 L 374 373 L 78 373 Z M 78 38 " clip-rule="nonzero"/></clipPath><clipPath id="c796c96f76"><path d="M 57.21875 -41.210938 L 415.582031 55.753906 L 307.257812 456.105469 L -51.105469 359.140625 Z M 57.21875 -41.210938 " clip-rule="nonzero"/></clipPath><clipPath id="cd60c7588e"><path d="M 57.21875 -41.210938 L 415.582031 55.753906 L 307.257812 456.105469 L -51.105469 359.140625 Z M 57.21875 -41.210938 " clip-rule="nonzero"/></clipPath><clipPath id="2d0d190077"><path d="M 57.75 42.75 L 339 42.75 L 339 324 L 57.75 324 Z M 57.75 42.75 " clip-rule="nonzero"/></clipPath><clipPath id="89c5ff5cb6"><path d="M 198.375 42.75 C 120.710938 42.75 57.75 105.710938 57.75 183.375 C 57.75 261.039062 120.710938 324 198.375 324 C 276.039062 324 339 261.039062 339 183.375 C 339 105.710938 276.039062 42.75 198.375 42.75 Z M 198.375 42.75 " clip-rule="nonzero"/></clipPath><clipPath id="060c648673"><path d="M 105 58 L 291.972656 58 L 291.972656 309 L 105 309 Z M 105 58 " clip-rule="nonzero"/></clipPath></defs><g clip-path="url(#bdcf9de1e0)"><g clip-path="url(#f211004c8c)"><g clip-path="url(#b3c894a2dc)"><path fill="#00bf63" d="M 45.125 141.675781 C 68.007812 57.097656 155.121094 7.089844 239.699219 29.972656 C 258.742188 35.125 276.03125 43.542969 291.132812 54.449219 L 311.492188 49.207031 C 290.5625 30.394531 265.027344 16.070312 236.007812 8.214844 C 137.113281 -18.542969 35.253906 39.9375 8.496094 138.828125 C -8.714844 202.445312 9.347656 267.28125 50.75 312.574219 L 6.066406 374.832031 C 14.359375 365.976562 52.574219 329.578125 87.410156 296.617188 C 47.683594 257.753906 29.578125 199.128906 45.125 141.675781 " fill-opacity="1" fill-rule="nonzero"/></g></g></g><g clip-path="url(#e2babc1e7e)"><g clip-path="url(#c796c96f76)"><g clip-path="url(#cd60c7588e)"><path fill="#228be6" d="M 330.648438 69.210938 L 352.195312 38.722656 L 310.394531 70.851562 C 349.230469 109.71875 366.777344 167.699219 351.394531 224.542969 C 328.511719 309.117188 241.398438 359.125 156.828125 336.242188 C 141.597656 332.121094 127.5 325.914062 114.734375 318.019531 C 102.386719 324.585938 90.097656 331.132812 78.449219 337.332031 C 96.226562 350.269531 116.617188 360.25 139.105469 366.335938 C 238 393.09375 339.855469 334.617188 366.613281 235.726562 C 382.929688 175.425781 367.554688 114.019531 330.648438 69.210938 " fill-opacity="1" fill-rule="nonzero"/></g></g></g><g clip-path="url(#2d0d190077)"><g clip-path="url(#89c5ff5cb6)"><path fill="#00a046" d="M 57.75 42.75 L 339 42.75 L 339 324 L 57.75 324 Z M 57.75 42.75 " fill-opacity="1" fill-rule="nonzero"/></g></g><g clip-path="url(#060c648673)"><path fill="#ffffff" d="M 203.46875 308.519531 C 194.320312 308.273438 178.242188 307.847656 167.738281 307.574219 C 151.667969 307.15625 148.367188 306.9375 146.917969 306.1875 C 143.019531 304.171875 141.785156 298.410156 144.550781 295.121094 C 147.371094 291.765625 145.097656 291.863281 193.078125 293.058594 C 241.351562 294.265625 239.214844 294.054688 241.695312 297.78125 C 243.765625 300.890625 243.113281 304.554688 239.96875 307.496094 C 238.558594 308.8125 238.363281 308.839844 229.320312 308.90625 C 224.25 308.941406 212.617188 308.769531 203.46875 308.519531 Z M 238.347656 284.957031 C 223.886719 284.730469 189.476562 284.253906 161.878906 283.894531 C 106.28125 283.175781 109.253906 283.40625 106.75 279.648438 C 104.570312 276.378906 105.640625 271.417969 108.980469 269.289062 C 110.59375 268.261719 111.457031 268.246094 145.511719 268.601562 C 164.699219 268.800781 201.527344 269.246094 227.359375 269.597656 L 274.324219 270.230469 L 276.269531 271.429688 C 280.878906 274.28125 281.082031 280.777344 276.660156 283.925781 C 274.441406 285.503906 273.980469 285.519531 238.347656 284.957031 Z M 192.097656 258.796875 C 189.964844 257.613281 111.601562 180.054688 110.664062 178.199219 C 109.660156 176.214844 109.171875 172.964844 109.585938 171.074219 C 109.828125 169.972656 112.304688 166.953125 117.140625 161.863281 C 124.847656 153.753906 127.535156 151.894531 131.59375 151.882812 C 134.210938 151.875 133.910156 151.695312 157.453125 167.097656 C 167.269531 173.515625 175.539062 178.621094 175.835938 178.4375 C 176.183594 178.222656 176.371094 158.820312 176.371094 122.300781 C 176.371094 82.511719 176.542969 65.796875 176.976562 64.078125 C 177.660156 61.367188 180.007812 58.6875 182.179688 58.140625 C 183.761719 57.742188 207.425781 58.851562 212.703125 59.570312 C 216.496094 60.089844 219.097656 61.742188 221.023438 64.863281 C 222.167969 66.710938 222.25 67.578125 222.621094 81.304688 C 222.839844 89.277344 223.507812 113.789062 224.109375 135.777344 C 224.710938 157.765625 225.203125 176.417969 225.203125 177.230469 C 225.203125 178.132812 225.492188 178.707031 225.945312 178.707031 C 226.355469 178.707031 234.628906 172.613281 244.328125 165.164062 C 254.023438 157.71875 263.027344 151.078125 264.332031 150.410156 C 269.546875 147.734375 270.785156 148.464844 281.183594 160.386719 C 285.984375 165.886719 290.324219 170.984375 290.828125 171.714844 C 291.960938 173.359375 292.058594 178.542969 291.003906 181.003906 C 290.597656 181.953125 289.449219 183.496094 288.453125 184.429688 C 283.382812 189.191406 201.039062 257.816406 199.332031 258.703125 C 196.859375 259.988281 194.308594 260.023438 192.101562 258.796875 Z M 192.097656 258.796875 " fill-opacity="1" fill-rule="nonzero"/></g><g fill="#d9d9d9" fill-opacity="1"><g transform="translate(178.853049, 221.374424)"><g><path d="M 6.046875 -19.109375 L 6.046875 -10.3125 L 9.9375 -10.3125 L 9.9375 -19.109375 C 9.9375 -19.691406 9.765625 -20.203125 9.421875 -20.640625 C 9.085938 -21.085938 8.613281 -21.3125 8 -21.3125 C 7.375 -21.3125 6.890625 -21.085938 6.546875 -20.640625 C 6.210938 -20.203125 6.046875 -19.691406 6.046875 -19.109375 Z M 14.828125 -19.390625 L 14.828125 -0.734375 C 14.828125 -0.546875 14.78125 -0.375 14.6875 -0.21875 C 14.601562 -0.0703125 14.457031 0 14.25 0 L 10.53125 0 C 10.34375 0 10.195312 -0.0703125 10.09375 -0.21875 C 9.988281 -0.363281 9.9375 -0.535156 9.9375 -0.734375 L 9.9375 -6.046875 L 6.046875 -6.046875 L 6.046875 -0.71875 C 6.046875 -0.519531 6.007812 -0.347656 5.9375 -0.203125 C 5.863281 -0.0664062 5.71875 0 5.5 0 L 1.625 0 C 1.488281 0 1.375 -0.0664062 1.28125 -0.203125 C 1.195312 -0.347656 1.15625 -0.519531 1.15625 -0.71875 L 1.15625 -19.390625 C 1.15625 -20.265625 1.335938 -21.085938 1.703125 -21.859375 C 2.066406 -22.628906 2.5625 -23.300781 3.1875 -23.875 C 3.820312 -24.457031 4.550781 -24.914062 5.375 -25.25 C 6.195312 -25.582031 7.066406 -25.75 7.984375 -25.75 C 8.898438 -25.75 9.769531 -25.582031 10.59375 -25.25 C 11.414062 -24.914062 12.144531 -24.457031 12.78125 -23.875 C 13.414062 -23.300781 13.914062 -22.628906 14.28125 -21.859375 C 14.644531 -21.085938 14.828125 -20.265625 14.828125 -19.390625 Z M 14.828125 -19.390625 "/></g></g></g><g fill="#d9d9d9" fill-opacity="1"><g transform="translate(194.836599, 221.374424)"><g><path d="M 6.1875 -24.625 L 6.1875 -0.703125 C 6.1875 -0.234375 5.984375 0 5.578125 0 L 1.921875 0 C 1.515625 0 1.3125 -0.234375 1.3125 -0.703125 L 1.3125 -24.625 C 1.3125 -25.101562 1.515625 -25.34375 1.921875 -25.34375 L 5.578125 -25.34375 C 5.984375 -25.34375 6.1875 -25.101562 6.1875 -24.625 Z M 6.1875 -24.625 "/></g></g></g><g fill="#d9d9d9" fill-opacity="1"><g transform="translate(202.361504, 221.374424)"><g><path d="M 14.59375 -19.375 L 14.59375 -5.953125 C 14.59375 -4.960938 14.410156 -4.070312 14.046875 -3.28125 C 13.679688 -2.5 13.179688 -1.832031 12.546875 -1.28125 C 11.910156 -0.726562 11.175781 -0.304688 10.34375 -0.015625 C 9.507812 0.265625 8.640625 0.40625 7.734375 0.40625 C 6.816406 0.40625 5.945312 0.253906 5.125 -0.046875 C 4.3125 -0.347656 3.585938 -0.769531 2.953125 -1.3125 C 2.316406 -1.863281 1.816406 -2.53125 1.453125 -3.3125 C 1.097656 -4.101562 0.921875 -4.984375 0.921875 -5.953125 L 0.921875 -19.375 C 0.921875 -20.363281 1.097656 -21.25 1.453125 -22.03125 C 1.816406 -22.820312 2.316406 -23.488281 2.953125 -24.03125 C 3.585938 -24.582031 4.3125 -25 5.125 -25.28125 C 5.945312 -25.570312 6.816406 -25.71875 7.734375 -25.71875 C 8.640625 -25.71875 9.507812 -25.570312 10.34375 -25.28125 C 11.175781 -25 11.910156 -24.582031 12.546875 -24.03125 C 13.179688 -23.488281 13.679688 -22.828125 14.046875 -22.046875 C 14.410156 -21.265625 14.59375 -20.375 14.59375 -19.375 Z M 7.765625 -21.328125 C 7.140625 -21.328125 6.648438 -21.101562 6.296875 -20.65625 C 5.953125 -20.207031 5.78125 -19.6875 5.78125 -19.09375 L 5.78125 -6.203125 C 5.78125 -5.628906 5.945312 -5.117188 6.28125 -4.671875 C 6.625 -4.234375 7.109375 -4.015625 7.734375 -4.015625 C 8.359375 -4.015625 8.84375 -4.21875 9.1875 -4.625 C 9.539062 -5.03125 9.71875 -5.519531 9.71875 -6.09375 L 9.71875 -19.09375 C 9.71875 -19.6875 9.539062 -20.207031 9.1875 -20.65625 C 8.84375 -21.101562 8.367188 -21.328125 7.765625 -21.328125 Z M 7.765625 -21.328125 "/></g></g></g><g fill="#d9d9d9" fill-opacity="1"><g transform="translate(217.876484, 221.374424)"><g/></g></g></svg>